<mxfile host="Electron" agent="Mozilla/5.0 (Windows NT 10.0; Win64; x64) AppleWebKit/537.36 (KHTML, like Gecko) draw.io/28.1.2 Chrome/138.0.7204.243 Electron/37.4.0 Safari/537.36" version="28.1.2">
  <diagram name="Page-1" id="UrdDmWihsR8l0HGSUJes">
    <mxGraphModel dx="1420" dy="841" grid="1" gridSize="10" guides="1" tooltips="1" connect="1" arrows="1" fold="1" page="1" pageScale="1" pageWidth="850" pageHeight="1100" math="0" shadow="0">
      <root>
        <mxCell id="0" />
        <mxCell id="1" parent="0" />
        <mxCell id="uPw-r6XyCcvFzQKQfX8_-1" value="" style="whiteSpace=wrap;html=1;aspect=fixed;" vertex="1" parent="1">
          <mxGeometry x="180" width="950" height="950" as="geometry" />
        </mxCell>
        <mxCell id="uPw-r6XyCcvFzQKQfX8_-3" value="Receptionist" style="shape=umlActor;verticalLabelPosition=bottom;verticalAlign=top;html=1;outlineConnect=0;" vertex="1" parent="1">
          <mxGeometry x="90" y="280" width="30" height="60" as="geometry" />
        </mxCell>
        <mxCell id="uPw-r6XyCcvFzQKQfX8_-5" value="Schedule" style="ellipse;whiteSpace=wrap;html=1;" vertex="1" parent="1">
          <mxGeometry x="430" y="130" width="120" height="80" as="geometry" />
        </mxCell>
        <mxCell id="uPw-r6XyCcvFzQKQfX8_-6" value="Collect patient information&amp;nbsp;" style="ellipse;whiteSpace=wrap;html=1;" vertex="1" parent="1">
          <mxGeometry x="660" y="240" width="120" height="80" as="geometry" />
        </mxCell>
        <mxCell id="uPw-r6XyCcvFzQKQfX8_-7" value="Complete patient&#39;s registration before admission" style="ellipse;whiteSpace=wrap;html=1;" vertex="1" parent="1">
          <mxGeometry x="400" y="290" width="120" height="80" as="geometry" />
        </mxCell>
        <mxCell id="uPw-r6XyCcvFzQKQfX8_-12" value="During schedule appointments and admissions" style="ellipse;whiteSpace=wrap;html=1;" vertex="1" parent="1">
          <mxGeometry x="970" y="170" width="120" height="80" as="geometry" />
        </mxCell>
        <mxCell id="uPw-r6XyCcvFzQKQfX8_-13" value="During the patient&#39;s arrival" style="ellipse;whiteSpace=wrap;html=1;" vertex="1" parent="1">
          <mxGeometry x="980" y="250" width="120" height="80" as="geometry" />
        </mxCell>
        <mxCell id="uPw-r6XyCcvFzQKQfX8_-14" value="&amp;lt;&amp;lt;extend&amp;gt;&amp;gt;" style="edgeStyle=none;html=1;startArrow=open;endArrow=none;startSize=12;verticalAlign=bottom;dashed=1;labelBackgroundColor=none;rounded=0;exitX=1;exitY=1;exitDx=0;exitDy=0;" edge="1" parent="1" source="uPw-r6XyCcvFzQKQfX8_-6" target="uPw-r6XyCcvFzQKQfX8_-13">
          <mxGeometry width="160" relative="1" as="geometry">
            <mxPoint x="460" y="289" as="sourcePoint" />
            <mxPoint x="620" y="289" as="targetPoint" />
          </mxGeometry>
        </mxCell>
        <mxCell id="uPw-r6XyCcvFzQKQfX8_-15" value="&amp;lt;&amp;lt;extend&amp;gt;&amp;gt;" style="edgeStyle=none;html=1;startArrow=open;endArrow=none;startSize=12;verticalAlign=bottom;dashed=1;labelBackgroundColor=none;rounded=0;entryX=0;entryY=0.5;entryDx=0;entryDy=0;" edge="1" parent="1" source="uPw-r6XyCcvFzQKQfX8_-6" target="uPw-r6XyCcvFzQKQfX8_-12">
          <mxGeometry width="160" relative="1" as="geometry">
            <mxPoint x="510" y="430" as="sourcePoint" />
            <mxPoint x="670" y="430" as="targetPoint" />
          </mxGeometry>
        </mxCell>
        <mxCell id="uPw-r6XyCcvFzQKQfX8_-16" value="Assign a bed in a ward for the patient" style="ellipse;whiteSpace=wrap;html=1;" vertex="1" parent="1">
          <mxGeometry x="400" y="390" width="120" height="80" as="geometry" />
        </mxCell>
        <mxCell id="uPw-r6XyCcvFzQKQfX8_-17" value="file insurance claims" style="ellipse;whiteSpace=wrap;html=1;" vertex="1" parent="1">
          <mxGeometry x="730" y="420" width="120" height="80" as="geometry" />
        </mxCell>
        <mxCell id="uPw-r6XyCcvFzQKQfX8_-18" value="Patient is inpatient" style="shape=note;whiteSpace=wrap;html=1;backgroundOutline=1;darkOpacity=0.05;" vertex="1" parent="1">
          <mxGeometry x="250" y="400" width="120" height="60" as="geometry" />
        </mxCell>
        <mxCell id="uPw-r6XyCcvFzQKQfX8_-19" value="file medical reports" style="ellipse;whiteSpace=wrap;html=1;" vertex="1" parent="1">
          <mxGeometry x="710" y="330" width="120" height="80" as="geometry" />
        </mxCell>
        <mxCell id="uPw-r6XyCcvFzQKQfX8_-20" value="&amp;lt;&amp;lt;extend&amp;gt;&amp;gt;" style="edgeStyle=none;html=1;startArrow=open;endArrow=none;startSize=12;verticalAlign=bottom;dashed=1;labelBackgroundColor=none;rounded=0;exitX=0.983;exitY=0.638;exitDx=0;exitDy=0;entryX=0;entryY=0.5;entryDx=0;entryDy=0;exitPerimeter=0;" edge="1" parent="1" source="uPw-r6XyCcvFzQKQfX8_-7" target="uPw-r6XyCcvFzQKQfX8_-19">
          <mxGeometry width="160" relative="1" as="geometry">
            <mxPoint x="610" y="280" as="sourcePoint" />
            <mxPoint x="722" y="308" as="targetPoint" />
          </mxGeometry>
        </mxCell>
        <mxCell id="uPw-r6XyCcvFzQKQfX8_-21" value="&amp;lt;&amp;lt;extend&amp;gt;&amp;gt;" style="edgeStyle=none;html=1;startArrow=open;endArrow=none;startSize=12;verticalAlign=bottom;dashed=1;labelBackgroundColor=none;rounded=0;exitX=0.717;exitY=0.925;exitDx=0;exitDy=0;entryX=-0.008;entryY=0.4;entryDx=0;entryDy=0;entryPerimeter=0;exitPerimeter=0;" edge="1" parent="1" source="uPw-r6XyCcvFzQKQfX8_-7" target="uPw-r6XyCcvFzQKQfX8_-17">
          <mxGeometry width="160" relative="1" as="geometry">
            <mxPoint x="590" y="310" as="sourcePoint" />
            <mxPoint x="702" y="338" as="targetPoint" />
          </mxGeometry>
        </mxCell>
        <mxCell id="uPw-r6XyCcvFzQKQfX8_-22" value="&lt;font style=&quot;font-size: 14px;&quot;&gt;Hospital reception system&lt;/font&gt;" style="text;html=1;align=center;verticalAlign=middle;whiteSpace=wrap;rounded=0;" vertex="1" parent="1">
          <mxGeometry x="415" y="20" width="180" height="30" as="geometry" />
        </mxCell>
        <mxCell id="uPw-r6XyCcvFzQKQfX8_-23" value="" style="endArrow=none;html=1;rounded=0;exitX=0.5;exitY=0.5;exitDx=0;exitDy=0;exitPerimeter=0;" edge="1" parent="1" source="uPw-r6XyCcvFzQKQfX8_-3" target="uPw-r6XyCcvFzQKQfX8_-5">
          <mxGeometry width="50" height="50" relative="1" as="geometry">
            <mxPoint x="430" y="360" as="sourcePoint" />
            <mxPoint x="480" y="310" as="targetPoint" />
          </mxGeometry>
        </mxCell>
        <mxCell id="uPw-r6XyCcvFzQKQfX8_-25" value="" style="endArrow=none;html=1;rounded=0;exitX=0.5;exitY=0.5;exitDx=0;exitDy=0;exitPerimeter=0;entryX=0;entryY=0.5;entryDx=0;entryDy=0;" edge="1" parent="1" source="uPw-r6XyCcvFzQKQfX8_-3" target="uPw-r6XyCcvFzQKQfX8_-7">
          <mxGeometry width="50" height="50" relative="1" as="geometry">
            <mxPoint x="430" y="360" as="sourcePoint" />
            <mxPoint x="480" y="310" as="targetPoint" />
          </mxGeometry>
        </mxCell>
        <mxCell id="uPw-r6XyCcvFzQKQfX8_-26" value="" style="endArrow=none;html=1;rounded=0;exitX=0.5;exitY=0.5;exitDx=0;exitDy=0;exitPerimeter=0;" edge="1" parent="1" source="uPw-r6XyCcvFzQKQfX8_-3" target="uPw-r6XyCcvFzQKQfX8_-16">
          <mxGeometry width="50" height="50" relative="1" as="geometry">
            <mxPoint x="430" y="360" as="sourcePoint" />
            <mxPoint x="480" y="310" as="targetPoint" />
          </mxGeometry>
        </mxCell>
        <mxCell id="uPw-r6XyCcvFzQKQfX8_-28" value="patient&#39;s appointments" style="ellipse;whiteSpace=wrap;html=1;" vertex="1" parent="1">
          <mxGeometry x="790" y="20" width="120" height="80" as="geometry" />
        </mxCell>
        <mxCell id="uPw-r6XyCcvFzQKQfX8_-29" value="patient&#39;s admission" style="ellipse;whiteSpace=wrap;html=1;" vertex="1" parent="1">
          <mxGeometry x="800" y="110" width="120" height="80" as="geometry" />
        </mxCell>
        <mxCell id="uPw-r6XyCcvFzQKQfX8_-33" value="&amp;lt;&amp;lt;include&amp;gt;&amp;gt;" style="html=1;verticalAlign=bottom;labelBackgroundColor=none;endArrow=open;endFill=0;dashed=1;rounded=0;entryX=0.133;entryY=0.238;entryDx=0;entryDy=0;entryPerimeter=0;exitX=0.5;exitY=1;exitDx=0;exitDy=0;" edge="1" parent="1" source="uPw-r6XyCcvFzQKQfX8_-5" target="uPw-r6XyCcvFzQKQfX8_-6">
          <mxGeometry width="160" relative="1" as="geometry">
            <mxPoint x="380" y="330" as="sourcePoint" />
            <mxPoint x="540" y="330" as="targetPoint" />
          </mxGeometry>
        </mxCell>
        <mxCell id="uPw-r6XyCcvFzQKQfX8_-34" value="&amp;lt;&amp;lt;include&amp;gt;&amp;gt;" style="html=1;verticalAlign=bottom;labelBackgroundColor=none;endArrow=open;endFill=0;dashed=1;rounded=0;entryX=1;entryY=0;entryDx=0;entryDy=0;" edge="1" parent="1" source="uPw-r6XyCcvFzQKQfX8_-28" target="uPw-r6XyCcvFzQKQfX8_-5">
          <mxGeometry width="160" relative="1" as="geometry">
            <mxPoint x="380" y="330" as="sourcePoint" />
            <mxPoint x="540" y="330" as="targetPoint" />
          </mxGeometry>
        </mxCell>
        <mxCell id="uPw-r6XyCcvFzQKQfX8_-35" value="&amp;lt;&amp;lt;include&amp;gt;&amp;gt;" style="html=1;verticalAlign=bottom;labelBackgroundColor=none;endArrow=open;endFill=0;dashed=1;rounded=0;entryX=1;entryY=0.5;entryDx=0;entryDy=0;" edge="1" parent="1" source="uPw-r6XyCcvFzQKQfX8_-29" target="uPw-r6XyCcvFzQKQfX8_-5">
          <mxGeometry width="160" relative="1" as="geometry">
            <mxPoint x="380" y="330" as="sourcePoint" />
            <mxPoint x="540" y="330" as="targetPoint" />
          </mxGeometry>
        </mxCell>
      </root>
    </mxGraphModel>
  </diagram>
</mxfile>
